<svg id="Layer_1" data-name="Layer 1" xmlns="http://www.w3.org/2000/svg" viewBox="0 0 496.98 78.79"><defs><style>.cls-1{fill:#ed1c24;}.cls-2{fill:#3a53a4;}.cls-3{fill:#f6ec13;}</style></defs><title>extreme</title><path class="cls-1" d="M570.18,528.73H526.26l40.66-59.91h43.91L599.89,485H578.44L574.31,491h20.12l-10.95,16.13H563.36l-3.91,5.76h21.45Z" transform="translate(-522.26 -461.28)"/><path class="cls-1" d="M658,528.73H631l-3.28-16.78-25.9,16.78H574.7l50.41-32.1-4.55-27.89H648l0.41,12.73,17.84-12.73h27.3l-42.25,27.89Z" transform="translate(-522.26 -461.28)"/><path class="cls-1" d="M744,485H729.36l-29.87,44h-22l29.87-44H692.55l11.06-16.29h51.48Z" transform="translate(-522.26 -461.28)"/><path class="cls-1" d="M783.12,528.73H755.27l-2-17.19-11.66,17.19H719.7l40.71-60h28.47q10.37,0,14.67,4.13,5.35,5.11-1.42,15.08-8.36,12.32-25.41,16.86Zm-4.67-40q1.75-2.57,0-3.86a6.84,6.84,0,0,0-4.13-1H772.1l-6.82,10.05a0.16,0.16,0,0,1,.18.08h2a15.06,15.06,0,0,0,5.68-1.13A11.16,11.16,0,0,0,778.44,488.72Z" transform="translate(-522.26 -461.28)"/><path class="cls-1" d="M832.18,528.73H788.26l40.66-59.91h43.91L861.89,485H840.44L836.31,491h20.12l-10.95,16.13H825.36l-3.91,5.76h21.45Z" transform="translate(-522.26 -461.28)"/><path class="cls-1" d="M929.24,528.56h-22l13.09-27-44.7,38.51q2.8-11.59,7.72-38.51l-23.55,27h-22l53.3-60.15h21l-5.71,26.35,30.2-26.35h20.9Z" transform="translate(-522.26 -461.28)"/><path class="cls-1" d="M978.58,528.73H934.67l40.66-59.91h43.91L1008.29,485H986.84L982.71,491h20.12l-10.95,16.13H971.77l-3.91,5.76h21.45Z" transform="translate(-522.26 -461.28)"/><path class="cls-2" d="M566.18,521.6H522.26l40.66-59.91h43.91l-10.95,16.13H574.44l-4.13,6.08h20.12L579.49,500H559.36l-3.91,5.76h21.45Z" transform="translate(-522.26 -461.28)"/><path class="cls-2" d="M654,521.6H627l-3.28-16.78-25.9,16.78H570.7l50.41-32.1-4.55-27.89H644l0.41,12.73,17.84-12.73h27.3l-42.25,27.89Z" transform="translate(-522.26 -461.28)"/><path class="cls-2" d="M740,477.82H725.36l-29.87,44h-22l29.87-44H688.55l11.06-16.29h51.48Z" transform="translate(-522.26 -461.28)"/><path class="cls-2" d="M779.12,521.6H751.27l-2-17.19L737.62,521.6H715.7l40.71-60h28.47q10.37,0,14.67,4.13,5.35,5.11-1.42,15.08-8.36,12.32-25.41,16.86Zm-4.67-40q1.75-2.57,0-3.86a6.84,6.84,0,0,0-4.13-1H768.1l-6.82,10.05a0.16,0.16,0,0,1,.18.08h2a15.06,15.06,0,0,0,5.68-1.13A11.16,11.16,0,0,0,774.44,481.59Z" transform="translate(-522.26 -461.28)"/><path class="cls-2" d="M828.18,521.6H784.26l40.66-59.91h43.91l-10.95,16.13H836.44l-4.13,6.08h20.12L841.49,500H821.36l-3.91,5.76h21.45Z" transform="translate(-522.26 -461.28)"/><path class="cls-2" d="M925.24,521.44h-22l13.09-27-44.7,38.51q2.8-11.59,7.72-38.51l-23.55,27h-22l53.3-60.15h21l-5.71,26.35,30.2-26.35h20.9Z" transform="translate(-522.26 -461.28)"/><path class="cls-2" d="M974.58,521.6H930.67l40.66-59.91h43.91l-10.95,16.13H982.84l-4.13,6.08h20.13L987.89,500H967.77l-3.91,5.76h21.45Z" transform="translate(-522.26 -461.28)"/><path class="cls-3" d="M568.5,524.6H524.59l40.66-59.91h43.91l-10.95,16.13H576.76l-4.13,6.08h20.12L581.81,503H561.69l-3.91,5.76h21.45Z" transform="translate(-522.26 -461.28)"/><path class="cls-3" d="M656.33,524.6h-27l-3.28-16.78-25.9,16.78H573l50.41-32.1-4.55-27.89h27.46l0.41,12.73,17.84-12.73h27.3l-42.25,27.89Z" transform="translate(-522.26 -461.28)"/><path class="cls-3" d="M742.35,480.82H727.69l-29.87,44h-22l29.87-44H690.87l11.06-16.29h51.48Z" transform="translate(-522.26 -461.28)"/><path class="cls-3" d="M781.44,524.6H753.59l-2-17.19L739.94,524.6H718l40.71-60h28.47q10.37,0,14.67,4.13,5.35,5.11-1.42,15.08-8.36,12.32-25.41,16.86Zm-4.67-40q1.75-2.57,0-3.86a6.84,6.84,0,0,0-4.13-1h-2.18l-6.82,10.05a0.16,0.16,0,0,1,.18.08h2a15.06,15.06,0,0,0,5.68-1.13A11.16,11.16,0,0,0,776.77,484.59Z" transform="translate(-522.26 -461.28)"/><path class="cls-3" d="M830.5,524.6H786.59l40.66-59.91h43.91l-10.95,16.13H838.76l-4.13,6.08h20.12L843.81,503H823.69l-3.91,5.76h21.45Z" transform="translate(-522.26 -461.28)"/><path class="cls-3" d="M927.57,524.44h-22l13.09-27L874,535.95q2.8-11.59,7.72-38.51l-23.55,27h-22l53.3-60.15h21l-5.71,26.35,30.2-26.35h20.9Z" transform="translate(-522.26 -461.28)"/><path class="cls-3" d="M976.91,524.6H933l40.66-59.91h43.91l-10.95,16.13H985.17L981,486.9h20.13L990.22,503H970.09l-3.91,5.76h21.45Z" transform="translate(-522.26 -461.28)"/></svg>