<?xml version="1.0" encoding="utf-8"?>
<!-- Generator: Adobe Illustrator 19.2.1, SVG Export Plug-In . SVG Version: 6.00 Build 0)  -->
<svg version="1.1" id="Layer_1" xmlns="http://www.w3.org/2000/svg" xmlns:xlink="http://www.w3.org/1999/xlink" x="0px" y="0px"
	 viewBox="0 0 150 150" style="enable-background:new 0 0 150 150;" xml:space="preserve">
<path d="M50.8,34.6c-7.9,0-14.4,6.5-14.4,14.4c0,7.9,6.5,14.4,14.4,14.4S65.1,56.9,65.1,49C65.1,41.1,58.7,34.6,50.8,34.6z
	 M50.8,59.3c-5.7,0-10.3-4.6-10.3-10.3c0-5.7,4.6-10.3,10.3-10.3S61,43.3,61,49C61,54.7,56.4,59.3,50.8,59.3z"/>
<path d="M96.6,40.9l-11.4-3.8l-1.6-4l5.4-10.8c0.4-0.8,0.2-1.7-0.4-2.4l-8.7-8.7c-0.6-0.6-1.6-0.8-2.4-0.4l-10.8,5.4l-4-1.6
	L58.9,3.3c-0.3-0.8-1.1-1.3-2-1.3H44.6c-0.9,0-1.7,0.4-2,1.3l-3.8,11.4l-4,1.6L24,10.8c-0.8-0.4-1.7-0.2-2.4,0.4l-8.7,8.7
	c-0.6,0.6-0.8,1.6-0.4,2.4l5.4,10.8l-1.6,4L4.6,40.9c-0.8,0.3-1.6,1.1-1.6,2v12.3c0,0.9,0.8,1.7,1.6,2l11.6,3.8l1.7,4l-5.4,10.8
	c-0.4,0.8-0.2,1.7,0.4,2.4l8.7,8.7c0.6,0.6,1.6,0.8,2.4,0.4l10.8-5.4l4,1.6l3.8,11.3c0.3,0.8,1.1,1.3,2,1.3h12.3
	c0.9,0,1.7-0.4,2-1.3l3.8-11.4l4-1.6l10.8,5.4c0.8,0.4,1.7,0.3,2.4-0.4l8.7-8.7c0.6-0.6,0.8-1.6,0.4-2.4l-5.4-10.8l1.6-4l11.4-3.8
	c0.8-0.3,1.4-1.1,1.4-2V42.8C98,41.9,97.5,41.2,96.6,40.9z M94,53.7l-11,3.6c-0.6,0.2-1,0.6-1.3,1.2l-2.4,5.7
	c-0.2,0.6-0.2,1.2,0.1,1.7l5.2,10.3L78,82.9l-10.3-5.2c-0.5-0.3-1.2-0.3-1.7-0.1L60.2,80c-0.6,0.2-1,0.6-1.2,1.2L55.4,92h-9.4
	l-3.6-10.8c-0.2-0.6-0.6-1-1.2-1.2l-5.7-2.3c-0.5-0.2-1.2-0.2-1.7,0.1l-10.3,5.2l-6.6-6.6L22,65.9c0.3-0.5,0.3-1.2,0.1-1.7l-2.4-5.7
	c-0.2-0.6-0.5-1-1-1.2L8,53.7v-9.4l10.7-3.6c0.6-0.2,0.9-0.6,1.1-1.2l2.3-5.7c0.2-0.6,0.2-1.2-0.1-1.7l-5.2-10.3l6.6-6.6l10.3,5.2
	c0.5,0.3,1.2,0.3,1.7,0.1l5.7-2.4c0.6-0.2,1-0.6,1.2-1.2L46.1,6h9.4l3.6,10.8c0.2,0.6,0.6,1,1.2,1.2l5.7,2.3
	c0.5,0.2,1.2,0.2,1.7-0.1L78,15.1l6.6,6.6l-5.2,10.3c-0.3,0.5-0.3,1.2-0.1,1.7l2.4,5.7c0.2,0.6,0.7,1,1.3,1.2l11,3.6V53.7z"/>
</svg>
