<?xml version="1.0" encoding="utf-8"?>
<!-- Generator: Adobe Illustrator 19.2.1, SVG Export Plug-In . SVG Version: 6.00 Build 0)  -->
<svg version="1.1" id="Layer_1" xmlns="http://www.w3.org/2000/svg" xmlns:xlink="http://www.w3.org/1999/xlink" x="0px" y="0px"
	 viewBox="0 0 150 150" style="enable-background:new 0 0 150 150;" xml:space="preserve">
<path d="M80.7,33.8C80.1,17.4,66.6,4.3,50.1,4.3c-16.5,0-30,13.1-30.6,29.5C9.7,34.8,2.1,43,2.1,52.9c0,17.8,17,35,17.8,35.8
	l1.4,1.4l1.4-1.4c0.3-0.3,5.9-5.9,10.8-14.1c0.2,0.3,0.3,0.5,0.5,0.8c7.2,10.8,14.3,17.9,14.6,18.2l1.4,1.4l1.4-1.4
	c0.3-0.3,7.4-7.4,14.6-18.2c0.2-0.3,0.4-0.6,0.5-0.8c4.9,8.2,10.5,13.9,10.8,14.1l1.4,1.4l1.4-1.4C81,87.9,98,70.7,98,52.9
	C98,42.9,90.4,34.7,80.7,33.8z M79.3,46.4c3.1,0.5,5.5,3.2,5.5,6.4c0,3.6-2.9,6.5-6.5,6.5c-1.1,0-2.1-0.3-3.1-0.8
	C77.1,54.4,78.4,50.3,79.3,46.4z M24.8,58.5c-0.9,0.5-2,0.8-3.1,0.8c-3.6,0-6.5-2.9-6.5-6.5c0-3.3,2.5-6,5.6-6.4
	C21.6,50.3,23,54.3,24.8,58.5z M21.3,84.2c-4-4.5-15.1-18.1-15.1-31.3c0-7.7,5.8-14.1,13.3-15c0.1,2,0.4,4,0.8,6.1
	c-4.3,0.7-7.6,4.4-7.6,8.8c0,4.9,4,8.9,8.9,8.9c1.5,0,2.9-0.4,4.1-1c1.5,3.3,3.3,6.6,5.3,10C27.7,76.8,23.5,81.8,21.3,84.2z
	 M50.1,89.2c-5.7-6.2-26.6-30.5-26.6-54.2c0-14.6,11.9-26.6,26.6-26.6c14.6,0,26.6,11.9,26.6,26.6C76.6,58.7,55.8,82.9,50.1,89.2z
	 M78.8,84.2c-2.2-2.4-6.4-7.4-9.8-13.6c2-3.3,3.8-6.6,5.3-9.9c1.2,0.6,2.6,1,4,1c4.9,0,8.9-4,8.9-8.9c0-4.4-3.2-8.1-7.5-8.8
	c0.4-2.1,0.6-4.1,0.8-6.1c7.5,0.9,13.3,7.3,13.3,15C93.9,66.1,82.9,79.7,78.8,84.2z"/>
<path d="M49.9,17.6c-8.1,0-14.7,6.6-14.7,14.7s6.6,14.7,14.7,14.7s14.7-6.6,14.7-14.7S58,17.6,49.9,17.6z M49.9,42.9
	c-5.9,0-10.7-4.8-10.7-10.7S44,21.6,49.9,21.6s10.7,4.8,10.7,10.7S55.8,42.9,49.9,42.9z"/>
</svg>
