<?xml version="1.0" encoding="utf-8"?>
<!-- Generator: Adobe Illustrator 19.2.1, SVG Export Plug-In . SVG Version: 6.00 Build 0)  -->
<svg version="1.1" xmlns="http://www.w3.org/2000/svg" xmlns:xlink="http://www.w3.org/1999/xlink" x="0px" y="0px"
	 viewBox="0 0 290.8 64.3" style="enable-background:new 0 0 290.8 64.3;" xml:space="preserve">
<style type="text/css">
	.st0{display:none;}
	.st1{display:inline;fill:#FF0000;}
	.st2{fill:#FFFF00;}
	.st3{fill:#FFFFFF;}
</style>
<g id="Layer_2" class="st0">
	<rect class="st1" width="290.8" height="64.3"/>
</g>
<g id="Layer_1">
	<path class="st2" d="M21.2,26.1H5.3V5.3h15.9v5.6h-7.8V13h7.3v5.6h-7.3v2h7.8V26.1z"/>
	<path class="st2" d="M51.8,26.1h-9.8l-5.3-5.8l-5.2,5.8h-9.8l10.3-11.2l-8.5-9.7h9.9l3.3,4.4l3.3-4.4H50l-8.4,9.7L51.8,26.1z"/>
	<path class="st2" d="M71.1,10.9h-5.3v15.3h-8V10.9h-5.4V5.2h18.6V10.9z"/>
	<path class="st2" d="M94.8,26.1H84.8l-4.9-6v6h-7.9V5.2h10.3c2.5,0,4.6,0.5,6.3,1.4c2.1,1.2,3.2,2.9,3.2,5.2c0,2.9-1.7,4.8-5,5.9
		L94.8,26.1z M83.3,12.2c0-0.6-0.3-1-1-1.3c-0.5-0.2-1.1-0.4-1.7-0.4h-0.5c0,0-0.1,0-0.1,0h-0.1V14c0,0,0.1,0,0.1,0h0.7
		c0.7,0,1.3-0.1,1.8-0.4C83,13.3,83.3,12.8,83.3,12.2z"/>
	<path class="st2" d="M111.4,26.1H95.6V5.3h15.9v5.6h-7.8V13h7.3v5.6h-7.3v2h7.8V26.1z"/>
	<path class="st2" d="M145.4,26h-8l-1.9-9.4L128.8,30c-1.2-2.7-3.4-7.2-6.7-13.4l-1.9,9.4h-8l4.5-20.9h7.6l4.4,9.2l4.5-9.2h7.6
		L145.4,26z"/>
	<path class="st2" d="M162.1,26.1h-15.9V5.3h15.9v5.6h-7.8V13h7.3v5.6h-7.3v2h7.8V26.1z"/>
	<g>
		<path class="st3" d="M188.4,27.2c-1.7,0.8-3.7,1.2-6,1.2c-3.7,0-6.8-1.1-9.3-3.2c-2.7-2.3-4.1-5.2-4.1-8.8c0-3.6,1.4-6.5,4.1-8.7
			c2.6-2.1,5.7-3.2,9.3-3.2c2.1,0,4.1,0.4,6,1.3v9.1c-1.7-2.4-3.7-3.6-6-3.6c-1.5,0-2.8,0.5-3.9,1.4c-1.1,1-1.7,2.2-1.7,3.7
			c0,1.6,0.5,2.8,1.6,3.8c1.1,1,2.4,1.5,3.9,1.5c2.1,0,4.1-1.1,6-3.3V27.2z"/>
		<path class="st3" d="M218.4,27.6h-8.2l-1.6-3.7h-7l-1.6,3.7h-8l9.5-22.4h7.6L218.4,27.6z M206.6,18.5l-1.4-3.9l-1.4,3.9H206.6z"/>
		<path class="st3" d="M242.4,27.6h-9.3l-4.6-6.4v6.4h-7.4V5.2h9.5c2.5,0,4.5,0.6,6.1,1.7c1.8,1.3,2.7,3.1,2.7,5.5
			c0,3.1-1.6,5.2-4.7,6.3L242.4,27.6z M231.7,12.7c0-0.6-0.3-1.1-0.8-1.4c-0.5-0.3-1-0.4-1.7-0.4h-0.5c0,0-0.1,0-0.1,0h-0.1v3.8
			c0,0,0,0,0.1,0h0.7c0.7,0,1.3-0.2,1.7-0.5C231.5,13.8,231.7,13.3,231.7,12.7z"/>
	</g>
	<g>
		<path class="st3" d="M29.9,55.8c-2.3,1.1-5,1.7-8.1,1.7c-4.9,0-9.1-1.4-12.6-4.3c-3.7-3.1-5.5-7-5.5-11.8c0-4.8,1.8-8.8,5.5-11.8
			c3.5-2.9,7.7-4.4,12.5-4.4c2.8,0,5.6,0.6,8.1,1.7v12.3c-2.3-3.2-5-4.9-8.1-4.9c-2,0-3.8,0.6-5.2,1.9c-1.5,1.3-2.3,3-2.3,5
			c0,2.1,0.7,3.8,2.1,5.1c1.4,1.3,3.2,2,5.3,2c2.8,0,5.5-1.5,8.1-4.5V55.8z"/>
		<path class="st3" d="M53.9,56.4H34.3V26.1h9.9v22.1h9.7V56.4z"/>
		<path class="st3" d="M77.4,56.4H57.5V26.2h19.9v8.2h-9.7v2.9h9.1v8.2h-9.1v3h9.7V56.4z"/>
		<path class="st3" d="M117,56.4h-11l-2.1-5h-9.5l-2.2,5H81.3l12.8-30.3h10.3L117,56.4z M101.1,44l-1.9-5.2L97.2,44H101.1z"/>
		<path class="st3" d="M154.2,56.4h-9.2l-13.4-15.7v15.7h-10.1V26.1h9.7l13.2,15.6V26.1h9.8V56.4z"/>
		<path class="st3" d="M168.4,56.4h-9.9V26.1h9.9V56.4z"/>
		<path class="st3" d="M205.4,56.4h-9.2l-13.4-15.7v15.7h-10.1V26.1h9.7l13.2,15.6V26.1h9.8V56.4z"/>
		<path class="st3" d="M244.5,40.8c0.1,5.4-1.4,9.6-4.6,12.4c-3,2.7-7.3,4.1-12.7,4.1c-5.2,0-9.4-1.4-12.5-4.1
			c-3.3-2.8-4.9-6.8-4.9-12c0-5,1.8-9.1,5.3-12c3.3-2.8,7.6-4.2,12.7-4.2c7.2,0,12.3,3.1,15.4,9.4l-9.6,3.7
			c-0.3-1.5-1.1-2.7-2.3-3.5c-1.2-0.9-2.6-1.3-4.1-1.3c-2.2,0-3.9,0.8-5.2,2.5c-1.2,1.5-1.7,3.4-1.7,5.7c0,2.1,0.6,4,1.9,5.5
			c1.3,1.6,3.1,2.4,5.2,2.4c3,0,4.9-1,5.6-3.1h-6.5V39h18.1L244.5,40.8z"/>
	</g>
</g>
</svg>
