<svg id="Layer_4" data-name="Layer 4" xmlns="http://www.w3.org/2000/svg" viewBox="0 0 500 185.5"><defs><style>.cls-1{fill:#ed1f24;}.cls-2,.cls-4{fill:#fff;}.cls-3,.cls-6{fill:none;}.cls-4{font-size:16.17px;font-family:Numans;}.cls-5{fill:#ed1c24;}.cls-6{stroke:#ed1c24;stroke-miterlimit:10;}</style></defs><title>mothersLogo</title><rect class="cls-1" width="500" height="185.5"/><path class="cls-2" d="M1060,494.67h37.17c9.57,2,15.8,8.29,16.33,12.67,1.17-6.43,13-13.27,18.31-13.27h10.75c3.58,0,10.37,2.75,11.6,5.6V513c-9.36-4.65-18.26-6.34-19.5-1.17-1.17,7.92,21.17,3.67,22.5,26.67,0.06,8.17-7.25,16.32-16.33,18h-40c-7.83-23.67-10.33-24.67-19.5-24.67V556.5H1060V494.67Z" transform="translate(-710 -447.25)"/><polygon class="cls-2" points="119.67 64.5 119.67 47.42 97.33 47.42 82.5 66.25 68.17 47.42 45.83 47.42 45.83 109.25 45.92 109.25 68.25 109.25 68.25 80.71 68.67 80.71 82.43 100.88 95.88 80.71 96.42 80.71 96.42 109.25 119.75 109.25 119.67 109.25 119.67 64.5"/><polygon class="cls-2" points="255 47.42 255 69.5 269.75 69.5 269.75 47.42 294.25 47.42 294.25 109.25 269.75 109.25 269.75 86.75 255 86.75 255 109.25 231.5 109.25 231.5 65.25 215.5 65.25 215.5 109.25 192.25 109.25 192.25 65.25 174.25 65.25 174.25 47.42 255 47.42"/><path class="cls-2" d="M755.52,585.43V562.7a0.29,0.29,0,0,1,.29-0.34h8.75a7.93,7.93,0,0,1,5.81,2,9.41,9.41,0,0,1,0,11.7,7.93,7.93,0,0,1-5.81,2h-6.33v7.36a0.28,0.28,0,0,1-.29.33h-2.12A0.28,0.28,0,0,1,755.52,585.43Zm2.71-9.69h6.33a5.07,5.07,0,0,0,3.75-1.37,7,7,0,0,0,0-8.29,5.07,5.07,0,0,0-3.75-1.37h-6.33v11Z" transform="translate(-710 -447.25)"/><path class="cls-2" d="M783.12,586.26a7.2,7.2,0,0,1-5.68-2.46q-2.16-2.46-2.16-7t2.16-7a7.88,7.88,0,0,1,11.37,0q2.16,2.42,2.16,7t-2.16,7A7.2,7.2,0,0,1,783.12,586.26Zm0-16.55a4.53,4.53,0,0,0-3.71,1.77,8.34,8.34,0,0,0-1.42,5.3,8.49,8.49,0,0,0,1.42,5.33,4.72,4.72,0,0,0,7.42,0,8.49,8.49,0,0,0,1.42-5.33,8.35,8.35,0,0,0-1.42-5.3A4.53,4.53,0,0,0,783.12,569.72Z" transform="translate(-710 -447.25)"/><path class="cls-2" d="M795.79,585.43V562.7a0.28,0.28,0,0,1,.29-0.34h2.12a0.28,0.28,0,0,1,.29.34v22.73a0.28,0.28,0,0,1-.29.33h-2.12A0.28,0.28,0,0,1,795.79,585.43Z" transform="translate(-710 -447.25)"/><path class="cls-2" d="M804.22,563a0.56,0.56,0,0,1,.6-0.67h2a0.6,0.6,0,0,1,.47.15,0.79,0.79,0,0,1,.13.51v2.17a0.79,0.79,0,0,1-.13.52,0.62,0.62,0,0,1-.47.15h-2a0.62,0.62,0,0,1-.46-0.15,0.75,0.75,0,0,1-.14-0.52V563Zm0.22,22.41V568.21a0.28,0.28,0,0,1,.29-0.34h2.11a0.29,0.29,0,0,1,.31.34v17.22a0.28,0.28,0,0,1-.31.33h-2.11A0.28,0.28,0,0,1,804.44,585.43Z" transform="translate(-710 -447.25)"/><path class="cls-2" d="M811.64,581a0.79,0.79,0,0,1,0-.13,0.26,0.26,0,0,1,.32-0.26h1.9a0.52,0.52,0,0,1,.37.33,5.39,5.39,0,0,0,5.27,3,5.77,5.77,0,0,0,3.18-.7,2.07,2.07,0,0,0,1-1.76,2.29,2.29,0,0,0-.71-1.74,5.73,5.73,0,0,0-2.45-1.13l-3.77-1q-4.83-1.31-4.83-5.17a4.38,4.38,0,0,1,1.8-3.61,7.82,7.82,0,0,1,4.93-1.4,8.27,8.27,0,0,1,5.06,1.44,6.66,6.66,0,0,1,2.53,3.83,0.29,0.29,0,0,1-.31.41h-1.9a0.5,0.5,0,0,1-.35-0.34,5.15,5.15,0,0,0-5-3,5.33,5.33,0,0,0-3,.72,2.11,2.11,0,0,0-1,1.77,2.25,2.25,0,0,0,.71,1.72,5.92,5.92,0,0,0,2.45,1.14l3.77,1q4.83,1.27,4.83,5.19a4.35,4.35,0,0,1-1.83,3.61,8.21,8.21,0,0,1-5.11,1.4,8.85,8.85,0,0,1-5.26-1.42A6.52,6.52,0,0,1,811.64,581Z" transform="translate(-710 -447.25)"/><path class="cls-2" d="M830.94,585.43V562.7a0.28,0.28,0,0,1,.29-0.34h2.12a0.28,0.28,0,0,1,.29.34v7.18a5,5,0,0,1,.72-0.75,7.63,7.63,0,0,1,1.16-.9,6.21,6.21,0,0,1,3.24-.85,6.51,6.51,0,0,1,5,2.09,8.13,8.13,0,0,1,1.94,5.76v10.2a0.28,0.28,0,0,1-.29.33H843.3a0.27,0.27,0,0,1-.29-0.33v-10.2a6.07,6.07,0,0,0-1.24-4.08,4,4,0,0,0-3.14-1.44,4.66,4.66,0,0,0-2.58.82,7.82,7.82,0,0,0-1.83,1.53,3.31,3.31,0,0,0-.57.83v12.53a0.28,0.28,0,0,1-.29.33h-2.12A0.28,0.28,0,0,1,830.94,585.43Z" transform="translate(-710 -447.25)"/><path class="cls-2" d="M857.84,586.3a6.91,6.91,0,0,1-5.44-2.47q-2.16-2.47-2.16-7t2.16-7a7.77,7.77,0,0,1,11.32,0,9.49,9.49,0,0,1,2.2,6.55v0.83a0.56,0.56,0,0,1-.6.67H853a7.51,7.51,0,0,0,1.62,4.54,4.5,4.5,0,0,0,3.47,1.5,5,5,0,0,0,4.83-3,0.49,0.49,0,0,1,.37-0.33h1.9a0.27,0.27,0,0,1,.29.39,6.77,6.77,0,0,1-2.47,3.85A8.28,8.28,0,0,1,857.84,586.3ZM853,575.56h10.23a6.5,6.5,0,0,0-1.62-4.24,4.67,4.67,0,0,0-3.54-1.61,4.51,4.51,0,0,0-3.44,1.49A7.12,7.12,0,0,0,853,575.56Z" transform="translate(-710 -447.25)"/><path class="cls-2" d="M869.27,581a0.79,0.79,0,0,1,0-.13,0.26,0.26,0,0,1,.32-0.26h1.9a0.52,0.52,0,0,1,.37.33,5.39,5.39,0,0,0,5.27,3,5.77,5.77,0,0,0,3.18-.7,2.07,2.07,0,0,0,1-1.76,2.29,2.29,0,0,0-.71-1.74,5.73,5.73,0,0,0-2.45-1.13l-3.77-1q-4.83-1.31-4.83-5.17a4.38,4.38,0,0,1,1.8-3.61,7.82,7.82,0,0,1,4.93-1.4,8.27,8.27,0,0,1,5.06,1.44,6.66,6.66,0,0,1,2.53,3.83,0.29,0.29,0,0,1-.31.41h-1.9a0.5,0.5,0,0,1-.35-0.34,5.15,5.15,0,0,0-5-3,5.33,5.33,0,0,0-3,.72,2.11,2.11,0,0,0-1,1.77,2.25,2.25,0,0,0,.71,1.72,5.92,5.92,0,0,0,2.45,1.14l3.77,1q4.83,1.27,4.83,5.19a4.35,4.35,0,0,1-1.83,3.61,8.21,8.21,0,0,1-5.11,1.4,8.85,8.85,0,0,1-5.26-1.42A6.52,6.52,0,0,1,869.27,581Z" transform="translate(-710 -447.25)"/><path class="cls-2" d="M901.12,563.49a0.4,0.4,0,0,1,0-.14c0-.13.1-0.19,0.29-0.19h2.11a0.43,0.43,0,0,1,.47.33l5.49,18.39,4.82-17.74a1.32,1.32,0,0,1,1.24-1h1.08a1.32,1.32,0,0,1,1.24,1l4.79,17.74,5.49-18.39a0.45,0.45,0,0,1,.47-0.33h2.11c0.25,0,.34.11,0.26,0.33l-6.43,21.3a1.32,1.32,0,0,1-1.41,1h-0.92a1.46,1.46,0,0,1-.93-0.29,1.21,1.21,0,0,1-.46-0.67L916,567.23l-4.73,17.57a1.18,1.18,0,0,1-.46.68,1.5,1.5,0,0,1-.93.28H909a1.34,1.34,0,0,1-1.41-1Z" transform="translate(-710 -447.25)"/><path class="cls-2" d="M935.06,584.77a5,5,0,0,1-1.75-4,4.92,4.92,0,0,1,1.8-4,7.72,7.72,0,0,1,5-1.47h5.29v-0.16q0-4.84-4.67-4.84a4.18,4.18,0,0,0-2.48.72,3.66,3.66,0,0,0-1.4,1.86,0.37,0.37,0,0,1-.36.32h-2a0.27,0.27,0,0,1-.32-0.32,4.9,4.9,0,0,1,2-3.51,7.31,7.31,0,0,1,4.52-1.32,7.67,7.67,0,0,1,5.53,1.85,6.93,6.93,0,0,1,1.93,5.24v10.34a0.28,0.28,0,0,1-.32.32h-1.7a0.32,0.32,0,0,1-.35-0.32l-0.27-1.78a4.11,4.11,0,0,1-.8.83,7,7,0,0,1-1.24.86,7.56,7.56,0,0,1-3.7.9A7.18,7.18,0,0,1,935.06,584.77Zm1-4a2.91,2.91,0,0,0,1,2.4A4.45,4.45,0,0,0,940,584a5.4,5.4,0,0,0,1.93-.35,5.64,5.64,0,0,0,1.53-.83,10.16,10.16,0,0,0,1.07-1,6.61,6.61,0,0,0,.69-0.84,2.35,2.35,0,0,0,.22-0.37v-3.06h-5.29Q936.1,577.53,936.1,580.76Z" transform="translate(-710 -447.25)"/><path class="cls-2" d="M952.25,585.76a0.24,0.24,0,0,1-.27-0.13,0.17,0.17,0,0,1,0-.18l6.23-8.3L952,568.82a0.24,0.24,0,0,1-.06-0.11c0-.15.1-0.22,0.3-0.22h2.23a0.74,0.74,0,0,1,.62.33l4.7,6.25,4.72-6.25a0.8,0.8,0,0,1,.62-0.33h2.23c0.2,0,.3.07,0.3,0.22a0.16,0.16,0,0,1,0,.11l-6.28,8.32,6.28,8.3a0.16,0.16,0,0,1,0,.11c0,0.14-.1.21-0.3,0.21h-2.23a0.75,0.75,0,0,1-.62-0.32l-4.72-6.24-4.7,6.24a0.75,0.75,0,0,1-.62.32h-2.23Z" transform="translate(-710 -447.25)"/><path class="cls-2" d="M977.84,586.28a7.33,7.33,0,0,1-5.6-2.39Q970,581.5,970,577.1t2.22-6.74a8.37,8.37,0,0,1,11.66,0,8.81,8.81,0,0,1,2.27,6.33v0.8a0.56,0.56,0,0,1-.62.65H972.84a7,7,0,0,0,1.67,4.38,4.78,4.78,0,0,0,3.58,1.45,5.23,5.23,0,0,0,5-2.9,0.5,0.5,0,0,1,.38-0.32h2a0.27,0.27,0,0,1,.3.38,6.51,6.51,0,0,1-2.55,3.72A8.94,8.94,0,0,1,977.84,586.28Zm-5-10.37h10.54a6.06,6.06,0,0,0-1.67-4.09,5,5,0,0,0-3.65-1.55,4.79,4.79,0,0,0-3.54,1.43A6.64,6.64,0,0,0,972.84,575.91Z" transform="translate(-710 -447.25)"/><path class="cls-2" d="M989.61,581.14a0.64,0.64,0,0,1,0-.13q0-.25.33-0.25h2a0.53,0.53,0,0,1,.38.32q1.55,2.9,5.43,2.9a6.26,6.26,0,0,0,3.28-.68,2,2,0,0,0,1.08-1.7,2.14,2.14,0,0,0-.74-1.68,6.1,6.1,0,0,0-2.52-1.1l-3.88-1q-5-1.26-5-5a4.14,4.14,0,0,1,1.85-3.48,8.44,8.44,0,0,1,5.08-1.35,8.93,8.93,0,0,1,5.22,1.39,6.42,6.42,0,0,1,2.61,3.7,0.28,0.28,0,0,1-.32.39h-2a0.5,0.5,0,0,1-.36-0.33,5.36,5.36,0,0,0-5.12-2.9,5.79,5.79,0,0,0-3.14.69,2,2,0,0,0-1.06,1.71,2.11,2.11,0,0,0,.74,1.66,6.27,6.27,0,0,0,2.52,1.1l3.88,1q5,1.23,5,5a4.13,4.13,0,0,1-1.88,3.48,8.88,8.88,0,0,1-5.26,1.35,9.56,9.56,0,0,1-5.42-1.37A6.28,6.28,0,0,1,989.61,581.14Z" transform="translate(-710 -447.25)"/><path class="cls-2" d="M1023.48,582.77q-2.7-3-2.7-8.36t2.69-8.37a8.82,8.82,0,0,1,6.9-3,9.77,9.77,0,0,1,5.9,1.65,7.16,7.16,0,0,1,2.83,4.67,0.28,0.28,0,0,1-.3.38h-1.86a0.35,0.35,0,0,1-.35-0.3q-1.24-4.2-6.22-4.22a6.24,6.24,0,0,0-5,2.32q-2,2.32-2,6.88t2,6.88a6.42,6.42,0,0,0,5.1,2.32q5,0,6.2-4.2a0.38,0.38,0,0,1,.35-0.32h1.86a0.26,0.26,0,0,1,.3.27,4.77,4.77,0,0,1-.85,2.65q-2.47,3.79-7.86,3.79A9,9,0,0,1,1023.48,582.77Z" transform="translate(-710 -447.25)"/><path class="cls-2" d="M1043.69,585V563.79a0.27,0.27,0,0,1,.29-0.32h2.08a0.27,0.27,0,0,1,.29.32V585a0.26,0.26,0,0,1-.29.3H1044A0.26,0.26,0,0,1,1043.69,585Z" transform="translate(-710 -447.25)"/><path class="cls-2" d="M1058.51,585.82a6.92,6.92,0,0,1-5.33-2.31,9.38,9.38,0,0,1-2.11-6.57q0-4.26,2.11-6.52a7.87,7.87,0,0,1,11.09,0,8.59,8.59,0,0,1,2.16,6.12v0.78a0.54,0.54,0,0,1-.59.63h-12.08a6.8,6.8,0,0,0,1.59,4.23,4.51,4.51,0,0,0,3.4,1.4,5,5,0,0,0,4.73-2.8,0.47,0.47,0,0,1,.36-0.3h1.86a0.26,0.26,0,0,1,.29.37,6.3,6.3,0,0,1-2.42,3.59A8.39,8.39,0,0,1,1058.51,585.82Zm-4.76-10h10a5.91,5.91,0,0,0-1.59-4,4.67,4.67,0,0,0-3.47-1.5,4.52,4.52,0,0,0-3.37,1.39A6.47,6.47,0,0,0,1053.75,575.8Z" transform="translate(-710 -447.25)"/><path class="cls-2" d="M1071.64,584.36a4.84,4.84,0,0,1-1.67-3.88,4.79,4.79,0,0,1,1.71-3.88,7.25,7.25,0,0,1,4.78-1.42h5V575q0-4.68-4.44-4.68a3.93,3.93,0,0,0-2.36.7,3.54,3.54,0,0,0-1.33,1.8,0.35,0.35,0,0,1-.35.3h-1.86a0.25,0.25,0,0,1-.3-0.3,4.75,4.75,0,0,1,1.9-3.4,6.87,6.87,0,0,1,4.3-1.28,7.23,7.23,0,0,1,5.26,1.79,6.76,6.76,0,0,1,1.83,5.06v10a0.27,0.27,0,0,1-.3.3h-1.62a0.31,0.31,0,0,1-.33-0.3l-0.26-1.72a3.94,3.94,0,0,1-.76.8,6.66,6.66,0,0,1-1.18.83,7.1,7.1,0,0,1-3.52.87A6.74,6.74,0,0,1,1071.64,584.36Zm1-3.88a2.83,2.83,0,0,0,1,2.31,4.18,4.18,0,0,0,2.73.79,5.06,5.06,0,0,0,1.84-.34,5.35,5.35,0,0,0,1.46-.81,9.59,9.59,0,0,0,1-1,6.43,6.43,0,0,0,.66-0.81,2.24,2.24,0,0,0,.21-0.36v-3h-5Q1072.63,577.37,1072.63,580.49Z" transform="translate(-710 -447.25)"/><path class="cls-2" d="M1089.76,585V568.94a0.27,0.27,0,0,1,.29-0.32h1.63a0.3,0.3,0,0,1,.32.32l0.27,1.71a5.17,5.17,0,0,1,.75-0.78,6.72,6.72,0,0,1,1.13-.85,6.24,6.24,0,0,1,3.29-.85,6.53,6.53,0,0,1,4.89,1.95,7.37,7.37,0,0,1,1.9,5.38V585a0.26,0.26,0,0,1-.29.3h-2.08a0.26,0.26,0,0,1-.29-0.3v-9.52a5.49,5.49,0,0,0-1.21-3.81,4,4,0,0,0-3.07-1.34,4.36,4.36,0,0,0-1.68.34,5.13,5.13,0,0,0-1.38.81,8.58,8.58,0,0,0-1,1,3.62,3.62,0,0,0-.85,1.17V585a0.26,0.26,0,0,1-.29.3H1090A0.26,0.26,0,0,1,1089.76,585Z" transform="translate(-710 -447.25)"/><path class="cls-2" d="M1116.1,585.82a6.92,6.92,0,0,1-5.33-2.31,9.38,9.38,0,0,1-2.11-6.57q0-4.26,2.11-6.52a7.87,7.87,0,0,1,11.09,0,8.59,8.59,0,0,1,2.16,6.12v0.78a0.54,0.54,0,0,1-.59.63h-12.08a6.8,6.8,0,0,0,1.59,4.23,4.51,4.51,0,0,0,3.4,1.4,5,5,0,0,0,4.73-2.8,0.47,0.47,0,0,1,.36-0.3h1.86a0.26,0.26,0,0,1,.29.37,6.3,6.3,0,0,1-2.42,3.59A8.39,8.39,0,0,1,1116.1,585.82Zm-4.76-10h10a5.91,5.91,0,0,0-1.59-4,4.67,4.67,0,0,0-3.47-1.5,4.52,4.52,0,0,0-3.37,1.39A6.47,6.47,0,0,0,1111.34,575.8Z" transform="translate(-710 -447.25)"/><path class="cls-2" d="M1128.75,585V568.94a0.27,0.27,0,0,1,.29-0.32h1.63a0.3,0.3,0,0,1,.32.32l0.27,2.65,0.23-.35a9.77,9.77,0,0,1,.73-0.79,6.35,6.35,0,0,1,1.27-1,8.64,8.64,0,0,1,1.85-.78,8.06,8.06,0,0,1,2.42-.36h1.18a0.27,0.27,0,0,1,.3.3v1.87a0.28,0.28,0,0,1-.3.32H1138a8.65,8.65,0,0,0-2.65.39,6.75,6.75,0,0,0-3.82,2.95l-0.17.4V585a0.26,0.26,0,0,1-.29.3H1129A0.26,0.26,0,0,1,1128.75,585Z" transform="translate(-710 -447.25)"/><path class="cls-2" d="M1141.18,580.85a0.68,0.68,0,0,1,0-.12c0-.16.11-0.24,0.32-0.24h1.86a0.51,0.51,0,0,1,.36.3,5.33,5.33,0,0,0,5.16,2.8,5.88,5.88,0,0,0,3.11-.66,1.92,1.92,0,0,0,1-1.65,2.09,2.09,0,0,0-.7-1.62,5.74,5.74,0,0,0-2.4-1.06l-3.69-.94q-4.73-1.22-4.73-4.83a4,4,0,0,1,1.76-3.37,7.93,7.93,0,0,1,4.83-1.31,8.39,8.39,0,0,1,5,1.34,6.2,6.2,0,0,1,2.48,3.58,0.27,0.27,0,0,1-.3.38h-1.86a0.48,0.48,0,0,1-.35-0.32,5.08,5.08,0,0,0-4.87-2.8,5.43,5.43,0,0,0-3,.67,2,2,0,0,0-1,1.65,2.05,2.05,0,0,0,.7,1.61,5.93,5.93,0,0,0,2.4,1.07l3.69,0.93q4.73,1.19,4.73,4.84a4,4,0,0,1-1.79,3.37,8.34,8.34,0,0,1-5,1.31,9,9,0,0,1-5.16-1.33A6.08,6.08,0,0,1,1141.18,580.85Z" transform="translate(-710 -447.25)"/><circle class="cls-2" cx="182.83" cy="128.58" r="5"/><circle class="cls-2" cx="302.17" cy="128.58" r="5.17"/><polygon class="cls-2" points="346.17 47.42 346.17 63.08 322.67 63.08 322.67 70.75 340.67 70.75 340.67 85.75 322.67 85.75 322.67 93.92 346.17 93.92 346.17 109.25 299.17 109.25 299.17 47.42 346.17 47.42"/><line class="cls-3" x1="350" y1="109.25" x2="350" y2="47.42"/><text class="cls-4" transform="translate(446.58 58.79)">®</text><line class="cls-3" x1="371.33" y1="71.58" x2="371.33" y2="61.58"/><path class="cls-1" d="M1081.33,518.83c5.39,0,9.75.67,9.75-5.83-0.92-4.21-4.55-4.47-9.75-4.17v10Z" transform="translate(-710 -447.25)"/><path class="cls-1" d="M1117.33,541.17c-0.16-4-5.35-10-10-14.67,2.57-.84,5.34-4.7,6.17-8.67,0.67,11.17,21.16,10.67,21.16,18.5,0.34,3-1.74,4.83-4.82,4.83h-12.5Z" transform="translate(-710 -447.25)"/><line class="cls-3" x1="407.33" y1="93.92" x2="419.83" y2="93.92"/><line class="cls-3" x1="412.83" y1="90.71" x2="412.75" y2="90.67"/><ellipse class="cls-2" cx="150.25" cy="78.33" rx="34.5" ry="32.47"/><path class="cls-5" d="M864.42,517.88c2.13-3.56,1.41-8-.3-9s-4.81,1-6.94,4.59-1.35,7.09.36,8.11S862.29,521.44,864.42,517.88Z" transform="translate(-710 -447.25)"/><ellipse class="cls-5" cx="871.93" cy="512.02" rx="1.21" ry="4" transform="translate(-817.28 316.9) rotate(-44.86)"/><path class="cls-6" d="M837.56,513.78c6.18,0.88,11.13,6.68,11.77,11.28" transform="translate(-710 -447.25)"/><path class="cls-6" d="M846.22,529c1.53-1.84,6.16-7.9,7.28-9.78" transform="translate(-710 -447.25)"/><path class="cls-6" d="M853.5,519.41c0-6.82,4.3-12.34,9.63-12.34" transform="translate(-710 -447.25)"/><path class="cls-6" d="M863.13,507.06c-4-2.37-18.35-3.62-25.56,6.72" transform="translate(-710 -447.25)"/><path class="cls-6" d="M839.62,514.26c-1.32,7.76,2,10.41,7.41,6" transform="translate(-710 -447.25)"/><line class="cls-6" x1="145" y1="75" x2="137.47" y2="83.72"/><line class="cls-6" x1="146.47" y1="76.72" x2="139.56" y2="85.03"/><path class="cls-6" d="M846.22,529a1.45,1.45,0,0,0,1.25,1.94" transform="translate(-710 -447.25)"/><path class="cls-6" d="M847.47,531a1.56,1.56,0,0,0,2.09,1.31" transform="translate(-710 -447.25)"/><path class="cls-6" d="M851.23,530.27c2.29,4.76,8.21,9.67,13.27,10.95" transform="translate(-710 -447.25)"/><path class="cls-6" d="M864.5,541.22a16.55,16.55,0,0,0-3.22,5" transform="translate(-710 -447.25)"/><path class="cls-6" d="M861.28,546.19c0,0.88,3.87,2.18,8.63-3.25" transform="translate(-710 -447.25)"/><path class="cls-6" d="M846.22,529a6.4,6.4,0,0,1,.82-8.19" transform="translate(-710 -447.25)"/><path class="cls-6" d="M864.5,541.22c-4.76-1.49-12.82-4.44-15.17-8.53" transform="translate(-710 -447.25)"/><path class="cls-6" d="M863.13,507.06c6-.05,5.19,7.25,3.56,10.88" transform="translate(-710 -447.25)"/><path class="cls-6" d="M866.69,517.94c-2.73,5.92-6,6-10.22,6" transform="translate(-710 -447.25)"/><path class="cls-6" d="M875,540.72c1.81-.08,1.47-1.67.75-3.34" transform="translate(-710 -447.25)"/><path class="cls-6" d="M860.25,523.74c0,9.19,2.06,18.32,11.79,15.86" transform="translate(-710 -447.25)"/><path class="cls-6" d="M869.44,537.94c2.13,0.28,2.47,2.78,5.53,2.78" transform="translate(-710 -447.25)"/><path class="cls-6" d="M875.72,537.38c1-1.86,1.75-3.22.47-3.22" transform="translate(-710 -447.25)"/><path class="cls-6" d="M876.19,534.16a8.45,8.45,0,0,0-.23-2.78" transform="translate(-710 -447.25)"/><path class="cls-6" d="M869.92,536c-0.12-1.61,1.46-3.06,1.46-5.5" transform="translate(-710 -447.25)"/><path class="cls-6" d="M870.5,534.07c-0.06,1.08,2.54,2.28,6,.13" transform="translate(-710 -447.25)"/><path class="cls-6" d="M872.47,528.59c-2.05,2.51-.37,3.56,1.81,3.07" transform="translate(-710 -447.25)"/><path class="cls-6" d="M874.28,531.67c2.42,0.57,4.45.08,3.81-1.54" transform="translate(-710 -447.25)"/><path class="cls-6" d="M878.09,530.13c0-2.21-1.85-2.82-2.37-4.54" transform="translate(-710 -447.25)"/><path class="cls-6" d="M875.72,525.59c-1.83,0-2.06,2.22-3.67,2.22" transform="translate(-710 -447.25)"/><path class="cls-6" d="M869.91,526.81a1.36,1.36,0,0,1-1.54,1" transform="translate(-710 -447.25)"/><path class="cls-6" d="M872,527.81c0-4.34-5.39-4.07-6.74-.84" transform="translate(-710 -447.25)"/><path class="cls-6" d="M865.31,527a11.35,11.35,0,0,1-5-1" transform="translate(-710 -447.25)"/><path class="cls-6" d="M865.31,527c0.09,4,5.16,4.7,6.74.84" transform="translate(-710 -447.25)"/><path class="cls-6" d="M868.38,508.47c-1.69,1.25,4.54,8.53,6.78,7" transform="translate(-710 -447.25)"/><path class="cls-6" d="M875.16,515.5c1.88-2.09-4.53-8.09-6.78-7" transform="translate(-710 -447.25)"/><path class="cls-6" d="M874.13,518.53c1.77,1.24.59,4.94,1.59,7.06" transform="translate(-710 -447.25)"/><path class="cls-6" d="M875.16,515.7a5.29,5.29,0,0,0-.87,2.83" transform="translate(-710 -447.25)"/><path class="cls-6" d="M874.13,518.53c-1.58-.33-5-1.15-6.25-3" transform="translate(-710 -447.25)"/><path class="cls-6" d="M869.91,542.94a2.37,2.37,0,0,0,3.58-1" transform="translate(-710 -447.25)"/><path class="cls-6" d="M875.23,522.22c4.74-2.72,7.56,5.44,1.68,4.79" transform="translate(-710 -447.25)"/><path class="cls-6" d="M873.49,542a4.32,4.32,0,0,0,5.61-.75" transform="translate(-710 -447.25)"/><path class="cls-6" d="M879.09,541.22a2.82,2.82,0,0,0-2.8-2.84" transform="translate(-710 -447.25)"/><path class="cls-6" d="M847.47,531.88c-6.52,2.22-5.32,4.61-.43,5.08" transform="translate(-710 -447.25)"/><path class="cls-6" d="M847,537c-1.54,2.81-.44,4.19,3,2.58" transform="translate(-710 -447.25)"/><path class="cls-6" d="M850.06,539.53c-1.23,3,0,4.73,3.81,2.44" transform="translate(-710 -447.25)"/><path class="cls-6" d="M853.88,542c-0.51,2.66,1.37,3.94,4.56,1.56" transform="translate(-710 -447.25)"/><path class="cls-6" d="M858.44,543.53c-0.86,2.22.51,3.14,3.23,1.85" transform="translate(-710 -447.25)"/></svg>