<?xml version="1.0" encoding="UTF-8"?>
<!-- Generator: Adobe Illustrator 15.0.2, SVG Export Plug-In . SVG Version: 6.00 Build 0)  -->
<!DOCTYPE svg PUBLIC "-//W3C//DTD SVG 1.1//EN" "http://www.w3.org/Graphics/SVG/1.1/DTD/svg11.dtd">
<svg xmlns="http://www.w3.org/2000/svg" xmlns:xlink="http://www.w3.org/1999/xlink" version="1.1" id="Layer_1" x="0px" y="0px" width="512px" height="631.473px" viewBox="0 0 512 631.473" enable-background="new 0 0 512 631.473" xml:space="preserve">
<path d="M398.223,119.465c23.61,0,42.666-19.055,42.666-42.666C440.889,48.354,398.223,0,398.223,0s-42.667,48.354-42.667,76.799  C355.556,150.41,374.611,119.465,398.223,119.465z M256,119.465c23.611,0,42.667-19.055,42.667-42.666C298.667,48.354,256,0,256,0  s-42.667,48.354-42.667,76.799C213.333,150.41,232.389,119.465,256,119.465z M113.777,119.465c23.611,0,42.667-19.055,42.667-42.666  C156.444,48.354,113.777,0,113.777,0S71.111,48.354,71.111,76.799C71.111,150.41,90.167,119.465,113.777,119.465z M452.833,205.083  c-5.833-16.784-21.75-28.729-40.389-28.729H99.556c-18.632,0-34.562,11.944-40.389,28.729L0,375.473v227.555  c0,15.64,12.799,28.445,28.444,28.445h28.444c15.785,0,28.444-12.806,28.444-28.445v-28.444h341.334v28.444  c0,15.64,12.806,28.445,28.444,28.445h28.444c15.777,0,28.444-12.806,28.444-28.445V375.473L452.833,205.083z M99.556,489.25  c-23.611,0-42.667-19.056-42.667-42.667c0-23.61,19.056-42.666,42.667-42.666s42.667,19.056,42.667,42.666  C142.223,470.194,123.167,489.25,99.556,489.25z M412.444,489.25c-23.611,0-42.667-19.056-42.667-42.667  c0-23.61,19.056-42.666,42.667-42.666s42.667,19.056,42.667,42.666C455.111,470.194,436.056,489.25,412.444,489.25z M56.889,347.021  l42.667-128h312.889l42.667,128H56.889z" fill="#000000"/>
</svg>
